<svg width="201" height="201" viewBox="0 0 201 201" fill="none" xmlns="http://www.w3.org/2000/svg">
<path fill-rule="evenodd" clip-rule="evenodd" d="M0.5 100.5V199.7C0.5 200.142 0.858172 200.5 1.3 200.5H100.5H199.7C200.142 200.5 200.5 200.142 200.5 199.7V100.5V1.3C200.5 0.858174 200.142 0.5 199.7 0.5H100.5H1.3C0.858174 0.5 0.5 0.858172 0.5 1.3V100.5ZM131.068 93.7C132.772 96.913 132.95 104.748 131.388 107.816C130.777 109.017 127.073 113.265 123.158 117.256L116.604 123.935C116.293 124.252 115.783 124.255 115.468 123.941L103.289 111.79L91.094 99.6218C90.7857 99.3141 90.7801 98.8164 91.0815 98.5019L93.207 96.284C97.458 91.847 99.775 92.571 108.496 101.058L115.626 107.996C115.966 108.327 116.519 108.291 116.813 107.917L118.382 105.923C122.374 100.848 121.55 99.29 107.088 84.589C92.237 69.493 90.759 66.768 94.01 60.481L95.4595 58.3097C95.7394 57.8904 96.3325 57.8314 96.6896 58.1872L112.666 74.109C121.999 83.399 130.28 92.215 131.068 93.7ZM91.218 79.5C93.681 82.533 92.571 85.474 86.5 92C82.249 96.569 80.5 99.235 80.5 101.142C80.5 103.248 83.302 106.681 93.38 116.917C100.464 124.113 106.764 130.983 107.38 132.184C108.926 135.199 108.782 138.053 106.902 141.69L105.804 143.812C105.556 144.292 104.913 144.393 104.53 144.011L88.334 127.891C79.001 118.601 70.72 109.785 69.932 108.3C68.229 105.088 68.05 97.253 69.611 94.184C70.222 92.983 74.358 88.304 78.802 83.787C87.276 75.173 87.611 75.058 91.218 79.5Z" fill="black"/>
</svg>
